<svg width="86" height="88" viewBox="0 0 86 88" fill="none" xmlns="http://www.w3.org/2000/svg">
<mask id="mask0" mask-type="alpha" maskUnits="userSpaceOnUse" x="43" y="42" width="15" height="46">
<path fill-rule="evenodd" clip-rule="evenodd" d="M43.6919 42.5739H57.1504V87.1843H43.6919V42.5739Z" fill="white"/>
</mask>
<g mask="url(#mask0)">
<path fill-rule="evenodd" clip-rule="evenodd" d="M43.6919 43.8095V78.0265C43.6919 82.1225 44.6509 86.1035 49.2659 87.0335C53.2809 87.8425 56.9119 85.3305 57.1479 81.2155C57.2419 79.5715 54.6829 79.5775 54.5889 81.2155C54.3109 86.0785 46.2499 85.9735 46.2499 79.5235V69.8685V43.8095C46.2499 42.1635 43.6919 42.1605 43.6919 43.8095Z" fill="#FEFEFE"/>
</g>
<path fill-rule="evenodd" clip-rule="evenodd" d="M41.4781 43.7851V78.0031C41.4781 82.0981 40.5191 86.0791 35.9041 87.0091C31.8891 87.8181 28.2571 85.3061 28.0221 81.1911C27.9271 79.5471 30.4861 79.5531 30.5801 81.1911C30.8591 86.0541 38.9191 85.9491 38.9191 79.4991V69.8441V43.7851C38.9191 42.1391 41.4781 42.1371 41.4781 43.7851Z" fill="#FEFEFE"/>
<path fill-rule="evenodd" clip-rule="evenodd" d="M33.6941 33.6073C33.6941 34.6343 32.8611 35.4673 31.8341 35.4673C30.8071 35.4673 29.9741 34.6343 29.9741 33.6073C29.9741 32.5803 30.8071 31.7473 31.8341 31.7473C32.8611 31.7473 33.6941 32.5803 33.6941 33.6073Z" fill="#FEFEFE"/>
<path fill-rule="evenodd" clip-rule="evenodd" d="M55.7684 33.6073C55.7684 34.6343 54.9354 35.4673 53.9084 35.4673C52.8804 35.4673 52.0474 34.6343 52.0474 33.6073C52.0474 32.5803 52.8804 31.7473 53.9084 31.7473C54.9354 31.7473 55.7684 32.5803 55.7684 33.6073Z" fill="#FEFEFE"/>
<path fill-rule="evenodd" clip-rule="evenodd" d="M34.1062 43.7851C34.1062 50.4561 34.2462 57.1441 34.1062 63.8141C34.0102 68.3801 32.1452 72.8741 27.4772 74.3361C24.0732 75.4021 20.0442 74.4851 17.5662 71.8851C13.8712 68.0061 14.3232 60.5271 19.0582 57.7141C20.4722 56.8741 19.1872 54.6611 17.7672 55.5051C12.6382 58.5521 11.2132 65.7521 13.8242 70.9661C15.9192 75.1491 20.5622 77.5351 25.1712 77.3101C30.0822 77.0701 34.1982 73.9201 35.8092 69.2921C36.8912 66.1811 36.6652 62.8551 36.6652 59.6161V43.7851C36.6652 42.1391 34.1062 42.1371 34.1062 43.7851Z" fill="#FEFEFE"/>
<path fill-rule="evenodd" clip-rule="evenodd" d="M48.5054 43.7851V59.6161C48.5054 65.9711 48.4844 66.8531 49.3604 69.2921C51.0154 73.9021 55.0894 77.0701 59.9974 77.3101C64.6074 77.5351 69.2504 75.1481 71.3454 70.9661C73.9564 65.7521 72.5314 58.5521 67.4024 55.5051C65.9844 54.6621 64.6954 56.8731 66.1114 57.7141C70.7454 60.4671 71.3034 67.7761 67.7904 71.6901C65.3204 74.4411 61.1884 75.4191 57.6934 74.3361C53.1974 72.9441 51.0714 68.6471 51.0714 64.2261C51.0714 57.1301 51.0634 54.4581 51.0634 43.7851C51.0634 42.1391 48.5054 42.1371 48.5054 43.7851Z" fill="#FEFEFE"/>
<mask id="mask1" mask-type="alpha" maskUnits="userSpaceOnUse" x="0" y="1" width="86" height="66">
<path fill-rule="evenodd" clip-rule="evenodd" d="M0 1.00031H85.17V66.479H0V1.00031Z" fill="white"/>
</mask>
<g mask="url(#mask1)">
<path fill-rule="evenodd" clip-rule="evenodd" d="M77.8103 36.6752C76.4453 35.7462 75.1643 37.9622 76.5193 38.8842C82.6453 43.0532 84.6193 51.9402 80.2813 58.1232C77.6003 61.9452 72.9003 63.9072 68.3233 63.9272C63.8483 63.9472 59.2493 62.0792 56.8763 58.1252C55.5103 55.8482 55.2013 53.3362 55.1873 50.7302C55.1853 50.5052 55.1883 50.2792 55.1873 50.0542C58.8513 52.0502 65.1923 49.7232 65.7533 44.7312C66.1663 41.0552 65.7903 37.1262 65.7903 33.4272C65.7903 30.3922 64.9473 26.0032 66.4553 23.2312C69.2663 18.0622 76.2753 20.8382 76.4873 26.1112C76.5523 27.7512 79.1113 27.7592 79.0443 26.1112C78.8953 22.3722 76.9313 19.0962 73.1203 18.1792C69.8353 17.3892 66.1513 18.7452 64.3883 21.6762C63.1253 23.7762 63.2323 26.1402 63.2323 28.5052V40.0902C63.2323 42.9662 63.9013 46.6782 60.5893 47.9432C58.7713 48.6372 55.3703 48.3222 55.1873 45.8452C55.1883 43.5302 55.1853 41.2162 55.1873 38.9012C60.8003 37.5422 61.3073 29.6342 56.1113 27.8052C58.7013 21.4082 59.8473 13.9842 55.8113 7.90918C52.8623 3.47018 47.8623 1.00018 42.5843 1.00018C37.3073 1.00018 32.3073 3.47018 29.3593 7.90918C25.3243 13.9822 26.4693 21.4092 29.0593 27.8052C23.8643 29.6342 24.3653 37.5422 29.9833 38.9012C29.9843 41.2162 29.9823 43.5302 29.9833 45.8452C29.8133 48.1532 26.7313 48.6012 24.9423 48.0732C21.4773 47.0492 21.9373 43.5912 21.9373 40.6732V28.5052C21.9373 26.1342 22.0393 23.7812 20.7813 21.6762C19.0703 18.8132 15.5363 17.4762 12.3203 18.1282C8.37032 18.9302 6.27932 22.2632 6.12432 26.1112C6.05932 27.7572 8.61732 27.7542 8.68332 26.1112C8.88732 21.0182 15.5593 18.0592 18.5723 22.9672C20.2813 25.7512 19.3793 30.3082 19.3793 33.4272C19.3793 37.1302 19.0013 41.0502 19.4163 44.7312C19.9783 49.7222 26.3193 52.0512 29.9833 50.0542C29.9823 50.1412 29.9833 50.2272 29.9833 50.3142C29.9753 52.9722 29.7643 55.5082 28.4343 57.8742C26.1763 61.8942 21.6063 63.8802 17.1313 63.9282C12.7373 63.9772 8.20232 62.2622 5.38832 58.7912C0.626316 52.9142 2.13932 43.7672 8.04432 39.2892C9.33932 38.3072 8.06632 36.0852 6.75332 37.0802C0.410316 41.8902 -1.94568 50.6822 1.77132 57.8922C4.30432 62.8062 9.46432 65.7702 14.8573 66.3662C20.1543 66.9512 25.8723 65.2722 29.3353 61.0632C31.0943 58.9252 32.0903 56.3162 32.4143 53.5802C33.0243 48.4332 32.5403 42.9862 32.5403 37.8112C32.5403 37.0912 31.9543 36.5712 31.2613 36.5322C27.1383 36.3012 26.5963 30.2752 30.8203 29.9832C31.8473 29.9122 32.3333 28.9652 31.9243 28.0582C29.3193 22.2812 27.7533 15.2162 31.3773 9.50018C33.8183 5.65218 38.0913 3.55818 42.5843 3.55818C46.9593 3.55818 51.1143 5.53418 53.6023 9.20018C57.4813 14.9142 55.8853 22.2032 53.2453 28.0582C52.8363 28.9652 53.3223 29.9122 54.3493 29.9832C58.5403 30.2732 58.0773 36.2982 53.9083 36.5322C53.2173 36.5712 52.6283 37.0872 52.6283 37.8112C52.6283 42.9862 52.1463 48.4332 52.7553 53.5802C53.0793 56.3162 54.0753 58.9242 55.8343 61.0632C59.3643 65.3532 65.2133 67.0082 70.5953 66.3292C76.1113 65.6332 81.2643 62.4822 83.6613 57.3502C87.1033 49.9762 84.4513 41.1952 77.8103 36.6752Z" fill="#FEFEFE"/>
</g>
</svg>
